<?xml version="1.0" encoding="UTF-8" standalone="no" ?>
<!DOCTYPE svg PUBLIC "-//W3C//DTD SVG 1.1//EN" "http://www.w3.org/Graphics/SVG/1.1/DTD/svg11.dtd">
<svg xmlns="http://www.w3.org/2000/svg" xmlns:xlink="http://www.w3.org/1999/xlink" version="1.1" width="1080" height="1080" viewBox="0 0 1080 1080" xml:space="preserve">
<desc>Created with Fabric.js 5.2.4</desc>
<defs>
</defs>
<g transform="matrix(1 0 0 1 540 540)" id="7bfac2b0-8c0d-4d09-97ce-2f4ce75167fb"  >
<rect style="stroke: none; stroke-width: 1; stroke-dasharray: none; stroke-linecap: butt; stroke-dashoffset: 0; stroke-linejoin: miter; stroke-miterlimit: 4; fill: rgb(255,255,255); fill-rule: nonzero; opacity: 1; visibility: hidden;" vector-effect="non-scaling-stroke"  x="-540" y="-540" rx="0" ry="0" width="1080" height="1080" />
</g>
<g transform="matrix(1 0 0 1 540 540)" id="49116fa7-4d70-4b30-b845-d44270efc5a5"  >
</g>
<g transform="matrix(5.89 0 0 7.31 540 540)" id="c3193dde-692b-4dcb-8196-987f40aa7784"  >
<path style="stroke: rgb(0,0,0); stroke-width: 0; stroke-dasharray: none; stroke-linecap: butt; stroke-dashoffset: 0; stroke-linejoin: miter; stroke-miterlimit: 4; fill: rgb(243,210,193); fill-rule: nonzero; opacity: 1;" vector-effect="non-scaling-stroke"  transform=" translate(-11.57, -1.54)" d="M 24.8 -46 C 30.9 -39.5 33.5 -30.2 40.2 -22.1 C 46.9 -13.9 57.5 -7 60 1.4 C 62.4 9.8 56.7 19.6 51.9 31 C 47.1 42.3 43.2 55.3 34.7 59.8 C 26.2 64.4 13.1 60.6 2.3 56.7 C -8.6 52.8 -17.2 48.8 -24.7 43.6 C -32.1 38.5 -38.4 32.1 -37.3 24.7 C -36.2 17.2 -27.7 8.6 -26 1 C -24.4 -6.7 -29.6 -13.4 -32.1 -23.2 C -34.5 -33 -34.2 -45.9 -28.4 -52.6 C -22.6 -59.2 -11.3 -59.7 -1 -58 C 9.4 -56.4 18.8 -52.6 24.8 -46 Z" stroke-linecap="round" />
</g>
</svg>